<?xml version="1.0" encoding="UTF-8" standalone="no"?>
<!-- Generator: Adobe Illustrator 17.0.0, SVG Export Plug-In . SVG Version: 6.00 Build 0)  -->

<svg
   xmlns:dc="http://purl.org/dc/elements/1.1/"
   xmlns:cc="http://creativecommons.org/ns#"
   xmlns:rdf="http://www.w3.org/1999/02/22-rdf-syntax-ns#"
   xmlns:svg="http://www.w3.org/2000/svg"
   xmlns="http://www.w3.org/2000/svg"
   xmlns:sodipodi="http://sodipodi.sourceforge.net/DTD/sodipodi-0.dtd"
   xmlns:inkscape="http://www.inkscape.org/namespaces/inkscape"
   version="1.1"
   id="Layer_1"
   x="0px"
   y="0px"
   width="35.009129"
   height="36.167"
   viewBox="0 0 35.009127 36.166998"
   enable-background="new 0 0 411.765 223.529"
   xml:space="preserve"
   sodipodi:docname="airline.svg"
   inkscape:version="0.92.2 5c3e80d, 2017-08-06"><metadata
     id="metadata156"><rdf:RDF><cc:Work
         rdf:about=""><dc:format>image/svg+xml</dc:format><dc:type
           rdf:resource="http://purl.org/dc/dcmitype/StillImage" /><dc:title></dc:title></cc:Work></rdf:RDF></metadata><defs
     id="defs154" /><sodipodi:namedview
     pagecolor="#ffffff"
     bordercolor="#666666"
     borderopacity="1"
     objecttolerance="10"
     gridtolerance="10"
     guidetolerance="10"
     inkscape:pageopacity="0"
     inkscape:pageshadow="2"
     inkscape:window-width="640"
     inkscape:window-height="480"
     id="namedview152"
     showgrid="false"
     inkscape:pagecheckerboard="true"
     fit-margin-top="0"
     fit-margin-left="0"
     fit-margin-right="0"
     fit-margin-bottom="0"
     inkscape:zoom="3.1474262"
     inkscape:cx="36.7507"
     inkscape:cy="8.6450932"
     inkscape:window-x="0"
     inkscape:window-y="0"
     inkscape:window-maximized="0"
     inkscape:current-layer="Layer_1" /><linearGradient
     id="SVGID_1_"
     gradientUnits="userSpaceOnUse"
     x1="5.7618722e-06"
     y1="112.2364"
     x2="413.51208"
     y2="112.2364"
     gradientTransform="translate(-309.51,-94.631)"><stop
       offset="0"
       style="stop-color:#2E74B8"
       id="stop2" /><stop
       offset="0.3538"
       style="stop-color:#2E74B8"
       id="stop4" /><stop
       offset="0.7694"
       style="stop-color:#2D73B7"
       id="stop6" /><stop
       offset="0.9097"
       style="stop-color:#2B70B6"
       id="stop8" /><stop
       offset="1"
       style="stop-color:#2B70B6"
       id="stop10" /></linearGradient><g
     id="g137"
     transform="translate(-309.51,-94.631)"><path
       d="m 327.503,130.798 -0.533,-1.073 c -0.147,-0.296 -3.589,-7.505 -2.719,-30.657 0.008,-0.129 0.211,-2.871 2.569,-4.323 l 0.187,-0.114 0.21,0.059 c 0.098,0.027 2.394,0.71 3.023,4.312 0.023,0.216 1.843,18.327 -2.352,30.663 z M 327.14,95.729 c -1.721,1.21 -1.892,3.369 -1.893,3.392 -0.657,17.495 1.214,25.858 2.136,28.835 3.554,-12.061 1.888,-28.645 1.87,-28.817 -0.416,-2.372 -1.638,-3.18 -2.113,-3.41 z"
       id="path123"
       inkscape:connector-curvature="0"
       style="fill:#ffffff" /><path
       d="m 321.234,129.893 c -0.393,0 -0.938,-0.084 -1.154,-0.253 -0.261,-0.202 -0.57,-0.48 -0.57,-0.672 v -2.152 c 0,-0.714 0.458,-1.165 0.878,-1.338 0.484,-0.2 1.124,0.082 1.473,0.346 l 3.33,-2.587 0.652,0.784 -3.926,3.119 -0.308,-0.312 c -0.188,-0.186 -0.698,-0.369 -0.835,-0.408 0.007,0.042 -0.263,0.164 -0.263,0.397 v 2.055 c 0,0.038 0.895,0.076 2.149,-0.341 l 3.765,-1.068 0.342,0.96 -3.594,1.062 c -0.821,0.272 -1.439,0.408 -1.939,0.408 z"
       id="path125"
       inkscape:connector-curvature="0"
       style="fill:#ffffff" /><path
       d="m 311.571,119.601 c -0.338,0 -0.88,-0.085 -1.132,-0.257 -0.648,-0.44 -0.929,-1.241 -0.929,-1.331 v -1.885 c 0,-0.686 0.537,-0.973 0.781,-1.092 0.414,-0.205 1.004,-0.027 1.313,0.149 l 8.084,-4.712 c 1.535,-1.413 1.963,-3.805 2.057,-4.626 -0.839,-0.404 -2.098,0.05 -2.788,0.394 0.158,1.24 0.635,3.01 1.17,3.373 l -0.619,0.719 c -1.177,-0.799 -1.513,-3.742 -1.569,-4.324 l -0.029,-0.315 0.273,-0.162 c 0.111,-0.066 2.755,-1.618 4.424,-0.342 l 0.209,0.16 -0.014,0.262 c -0.007,0.148 -0.207,3.647 -2.419,5.638 l -0.082,0.06 -8.625,5.066 -0.269,-0.205 c -0.12,-0.092 -0.532,-0.18 -0.638,-0.212 -0.007,0.038 -0.257,0.093 -0.257,0.17 v 1.875 0 c 0,0 0.269,0.366 0.494,0.515 0.188,0.126 0.664,0.103 1.115,-0.067 l 12.25,-3.924 0.337,0.952 -12.151,3.917 c -0.364,0.135 -0.683,0.204 -0.986,0.204 z"
       id="path127"
       inkscape:connector-curvature="0"
       style="fill:#ffffff" /><path
       d="m 321.112,110.834 0.794,-1.219 c 0.016,-0.006 1.46,-0.641 2.496,-1.638 l 0.693,0.721 c -1.184,1.139 -3.244,1.877 -3.983,2.136 z"
       id="path129"
       inkscape:connector-curvature="0"
       style="fill:#ffffff" /><path
       d="m 333.592,129.893 c 0.393,0 0.534,-0.084 0.751,-0.253 0.261,-0.202 0.167,-0.48 0.167,-0.672 v -2.152 c 0,-0.714 -0.054,-1.165 -0.474,-1.338 -0.484,-0.2 -0.923,0.082 -1.271,0.346 l -3.229,-2.587 -0.601,0.784 3.951,3.119 0.32,-0.312 c 0.188,-0.186 0.301,-0.369 0.438,-0.408 -0.007,0.042 -0.134,0.164 -0.134,0.397 v 2.055 c 0,0.038 -0.492,0.076 -1.746,-0.341 l -3.563,-1.068 -0.242,0.96 3.645,1.062 c 0.82,0.272 1.489,0.408 1.988,0.408 z"
       id="path131"
       inkscape:connector-curvature="0"
       style="fill:#ffffff" /><path
       d="m 343.255,119.601 c 0.338,0 0.477,-0.085 0.729,-0.257 0.648,-0.44 0.526,-1.241 0.526,-1.331 v -1.885 c 0,-0.686 -0.133,-0.973 -0.377,-1.092 -0.414,-0.205 -0.802,-0.027 -1.111,0.149 l -7.983,-4.712 c -1.535,-1.413 -1.913,-3.805 -2.007,-4.626 0.839,-0.404 2.123,0.05 2.814,0.394 -0.158,1.24 -0.622,3.01 -1.157,3.373 l 0.626,0.719 c 1.177,-0.799 1.516,-3.742 1.573,-4.324 l 0.031,-0.315 -0.272,-0.162 c -0.111,-0.066 -2.755,-1.618 -4.424,-0.342 l -0.209,0.16 0.014,0.262 c 0.007,0.148 0.207,3.647 2.419,5.638 l 0.082,0.06 8.625,5.066 0.269,-0.205 c 0.12,-0.092 0.128,-0.18 0.235,-0.212 0.007,0.038 -0.146,0.093 -0.146,0.17 v 1.875 0 c 0,0 0.134,0.366 -0.09,0.515 -0.188,0.126 -0.463,0.103 -0.913,-0.067 l -12.149,-3.924 -0.287,0.952 12.176,3.917 c 0.359,0.135 0.703,0.204 1.006,0.204 z"
       id="path133"
       inkscape:connector-curvature="0"
       style="fill:#ffffff" /><path
       d="m 333.714,110.834 -0.794,-1.219 c -0.016,-0.006 -1.46,-0.641 -2.496,-1.638 l -0.693,0.721 c 1.184,1.139 3.245,1.877 3.983,2.136 z"
       id="path135"
       inkscape:connector-curvature="0"
       style="fill:#ffffff" /></g></svg>