<svg xmlns="http://www.w3.org/2000/svg" width="67.39" height="30.549" viewBox="0 0 17.83 8.083">
  <path d="M17.83 6.896h-.302c0-1.23-.343-2.15-1.02-2.73a2.251 2.251 0 00-1.054-.516h-.01l-3.21-.672H1.454C.063 3.578.321 6.1.323 6.127l-.3.032C.013 6.045-.26 3.352 1.367 2.687l.027-.011h10.872l3.238.677c.116.017.66.122 1.2.584.515.44 1.127 1.31 1.127 2.96" fill="#fff"/>
  <path d="M12.186 2.874L10.196.302H3.454c-.074.033-.328.16-.625.465-.326.335-.773.96-1.046 2.03l-.293-.075C2.054.512 3.32.029 3.372.009L3.397 0h6.948l2.08 2.69z" fill="#fff"/>
  <path d="M6.61 2.793H6.31V.173h.302zM7.818 3.618H6.64v-.302h1.178zM12.812 6.598c-.23.18-.508.318-.818.318H5.643c-.271 0-.516-.106-.724-.253l-.01-.007a2.119 2.119 0 01-.242-.202l.002-.002a3.056 3.056 0 01-.206-.222h-.001a3.083 3.083 0 01-.106-.134l-.016-.023a2.884 2.884 0 01-.183-.284 1.635 1.635 0 00-3.122.661v.008a1.634 1.634 0 003.122.661c.011-.02.074-.133.18-.279a2.9 2.9 0 01-.216-.219 2.997 2.997 0 00-.234.362l-.004.008a1.332 1.332 0 01-2.547-.537 1.332 1.332 0 012.547-.537l.004.009a3.163 3.163 0 00.574.752c.296.284.698.54 1.182.54h6.351c.402 0 .75-.178 1.03-.4a3.991 3.991 0 00-.212-.22" fill="#fff"/>
  <path d="M16.625 6.45a1.635 1.635 0 00-1.632-1.624c-.642 0-1.226.377-1.49.962a2.929 2.929 0 01-.199.298l.214.22a3.12 3.12 0 00.253-.378l.005-.011a1.332 1.332 0 012.547.537 1.332 1.332 0 01-2.547.537l-.005-.01c-.009-.016-.077-.14-.199-.307a3.747 3.747 0 00-.496-.54c-.288-.243-.654-.443-1.082-.443H5.642c-.399 0-.741.174-1.015.394l.198.23c.228-.182.505-.322.817-.322h6.352c.307 0 .582.135.811.312l.01.008c.058.045.113.092.164.141l-.001.001c.115.108.265.264.374.432.087.122.14.213.151.234a1.635 1.635 0 003.122-.663zM28.928 7.688c-.359 0-.62-.29-.631-.303l.219-.195c.002.002.187.206.415.205.127-.001.25-.07.365-.203l.222.192c-.174.2-.371.303-.587.304zM29.969 2.008a1 1 0 01-.575-.186l-.01-.008c-.016-.014-.426-.366-.87-.044-.615.447-1.053.132-1.288-.036l-.023-.017c-.14-.1-.45-.054-.547-.03l-.07-.285c.052-.013.515-.118.787.076l.024.017c.223.16.5.36.945.038.505-.366 1.023-.125 1.232.058.045.031.44.291.822-.049l.015-.012c.487-.328.87-.194.886-.188l-.101.275c-.008-.003-.261-.083-.613.15a.915.915 0 01-.614.241M29.969 2.815a1 1 0 01-.575-.186l-.01-.008c-.016-.014-.426-.366-.87-.044-.615.447-1.053.132-1.288-.037l-.023-.016c-.14-.1-.45-.055-.548-.03l-.069-.286c.052-.012.514-.117.787.077l.024.017c.223.16.5.36.945.038.505-.367 1.023-.126 1.232.057.045.032.44.292.822-.048l.015-.012c.487-.329.87-.194.886-.189l-.101.276c-.008-.003-.261-.083-.613.15a.915.915 0 01-.614.241M29.969 3.622a1 1 0 01-.575-.186l-.01-.008c-.016-.015-.426-.366-.87-.045-.615.447-1.053.133-1.288-.036l-.023-.016c-.14-.1-.45-.055-.548-.031l-.069-.285c.052-.013.514-.118.787.077l.024.017c.223.16.5.36.945.037.505-.366 1.023-.125 1.232.058.045.032.44.291.822-.048l.015-.012c.487-.33.87-.194.886-.189l-.101.275c-.008-.003-.261-.083-.613.151a.915.915 0 01-.614.24M29.969 4.429a1 1 0 01-.575-.186l-.01-.008c-.016-.015-.426-.367-.87-.045-.616.447-1.053.132-1.289-.037l-.022-.016c-.14-.099-.45-.054-.548-.03l-.069-.285c.052-.013.514-.118.787.077l.024.017c.223.16.5.36.945.037.505-.366 1.023-.125 1.232.058.045.031.44.291.822-.049l.015-.012c.487-.328.87-.194.886-.188l-.101.275c-.009-.002-.261-.083-.613.151a.915.915 0 01-.614.24" fill="#fff"/>
  <path d="M30.466-4.273a4.29 4.29 0 00-1.088-.844 2.982 2.982 0 00-.621-.246 1.848 1.848 0 00-.455-.06c-.089 0-.153-.018-.184-.052s-.028-.083-.028-.083l.001-.345c0-.18.19-.207.236-.21h1.184c.048.004.237.03.237.21v.342s.005.051-.027.086c-.032.034-.096.052-.185.052-.148 0-.297.021-.446.058.185.068.352.162.468.235.17-.005.299-.056.385-.154a.416.416 0 00.098-.3v-.319c0-.375-.338-.493-.516-.503h-1.211c-.179.01-.516.128-.516.503v.319a.416.416 0 00.098.3c.09.102.226.154.406.154l.044.002v-.001c.196.004.4.06.572.126h.001c.496.187.99.56 1.331.93.869.936.827 2.219.787 3.459-.008.254-.016.517-.016.77-.001 1.543-.006 3.057-.01 4.335l-.005.979c-.002.624-.133 1.477-.739 1.998-.132.113-.25.177-.362.196-.12.02-.243-.02-.298-.098a.597.597 0 01-.072-.212 1.832 1.832 0 00-.028-.12.58.58 0 00-.575-.426h-.025a.579.579 0 00-.576.425c-.011.041-.02.082-.028.12a.59.59 0 01-.07.213c-.056.078-.179.119-.3.098-.11-.019-.23-.083-.361-.196-.607-.52-.737-1.374-.74-1.998l-.004-.98c-.004-1.277-.01-2.79-.01-4.334 0-.253-.009-.516-.017-.77-.04-1.24-.08-2.523.787-3.46.305-.33.731-.661 1.172-.862a2.804 2.804 0 00-.43-.108c-.375.221-.712.507-.957.77-.95 1.026-.907 2.37-.865 3.67.008.25.017.511.017.76a1497.021 1497.021 0 00.014 5.315c.004.983.295 1.75.842 2.219.173.149.338.235.503.263.235.04.466-.045.588-.218a.827.827 0 00.118-.321 1.92 1.92 0 01.024-.102c.036-.13.148-.21.293-.21h.025c.144 0 .257.08.293.21.009.032.016.066.023.102.022.102.047.218.119.32.102.145.28.229.473.229a.661.661 0 00.114-.01c.166-.028.33-.114.504-.263.546-.469.838-1.236.842-2.22l.003-.978c.005-1.278.01-2.792.011-4.335 0-.25.008-.51.017-.762.041-1.3.084-2.643-.865-3.668" fill="#fff"/>
</svg>
