<svg xmlns="http://www.w3.org/2000/svg" width="18.357" height="54.309" viewBox="0 0 4.857 14.369">
  <path d="M-8.66 13.303h-.303c0-1.231-.343-2.15-1.02-2.73a2.251 2.251 0 00-1.054-.516l-.009-.002-3.211-.67h-10.78c-1.39.6-1.132 3.123-1.13 3.148l-.3.033c-.012-.114-.285-2.808 1.342-3.473l.027-.01h10.872l3.238.676c.116.018.66.123 1.2.584.515.44 1.127 1.311 1.127 2.96" fill="#fff"/>
  <path d="M-14.305 9.28l-1.99-2.572h-6.742c-.074.033-.328.16-.625.465-.326.335-.773.96-1.046 2.03l-.293-.075c.564-2.21 1.829-2.693 1.882-2.712l.025-.01h6.948l2.08 2.69z" fill="#fff"/>
  <path d="M-19.88 9.2h-.302V6.58h.302zM-18.672 10.025h-1.178v-.302h1.178zM-13.678 13.004c-.23.18-.508.318-.819.318h-6.351c-.271 0-.516-.106-.724-.252l-.01-.007a2.119 2.119 0 01-.241-.203l.001-.001a3.056 3.056 0 01-.206-.223l-.001.001a3.083 3.083 0 01-.106-.135l-.016-.023a2.884 2.884 0 01-.183-.284 1.635 1.635 0 00-3.122.661v.009a1.634 1.634 0 003.122.66c.011-.02.074-.133.18-.279a2.9 2.9 0 01-.216-.219 2.997 2.997 0 00-.233.362l-.005.009a1.332 1.332 0 01-2.547-.537 1.332 1.332 0 012.547-.538l.005.009a3.163 3.163 0 00.574.752c.296.284.697.54 1.18.54h6.352c.403 0 .75-.177 1.03-.4a3.991 3.991 0 00-.211-.22" fill="#fff"/>
  <path d="M-9.866 12.856a1.635 1.635 0 00-1.632-1.624c-.642 0-1.226.377-1.49.962a2.929 2.929 0 01-.199.299l.214.22a3.12 3.12 0 00.253-.379l.006-.01a1.332 1.332 0 012.547.537 1.332 1.332 0 01-2.547.537l-.006-.011c-.009-.016-.077-.14-.199-.307a3.747 3.747 0 00-.496-.54c-.288-.243-.654-.443-1.082-.443h-6.351c-.4 0-.742.174-1.016.395l.198.23c.228-.182.505-.323.818-.323h6.351c.307 0 .582.135.811.312l.01.008c.058.045.113.093.164.141l-.001.002c.115.107.265.263.374.432.087.121.14.212.152.233.263.585.847.962 1.489.962.897 0 1.628-.728 1.632-1.624zM2.437 14.094c-.359 0-.62-.29-.63-.302l.218-.195c.002.002.187.206.415.204.127 0 .25-.07.366-.203l.22.193c-.173.2-.37.302-.586.303zM3.478 8.415a1 1 0 01-.575-.186l-.01-.008c-.016-.015-.426-.366-.87-.045C1.408 8.623.97 8.31.735 8.14l-.023-.017c-.14-.1-.45-.054-.547-.03l-.07-.285c.052-.013.515-.118.787.077l.024.017c.223.16.5.36.945.037.505-.366 1.023-.125 1.232.058.045.031.441.291.822-.049l.016-.012c.486-.328.87-.194.885-.188l-.1.275c-.01-.003-.262-.083-.614.151a.915.915 0 01-.614.24M3.478 9.222a1 1 0 01-.575-.186l-.01-.008c-.016-.015-.426-.367-.87-.045-.615.447-1.053.132-1.288-.037L.712 8.93c-.139-.099-.45-.054-.547-.03l-.07-.285c.052-.013.514-.118.787.077l.024.017c.223.16.5.36.945.037.505-.366 1.023-.125 1.232.058.045.031.441.29.822-.049l.016-.012c.486-.329.87-.194.885-.188l-.1.275c-.01-.003-.262-.083-.614.15a.915.915 0 01-.614.242M3.478 10.028a1 1 0 01-.575-.186l-.01-.008c-.016-.014-.426-.366-.87-.044-.615.447-1.053.132-1.288-.037l-.023-.016c-.139-.1-.45-.054-.547-.03l-.07-.286c.052-.012.514-.117.787.077l.024.017c.223.16.5.36.945.038.505-.366 1.023-.126 1.232.058.045.031.441.29.822-.05l.016-.011c.486-.329.87-.194.885-.188l-.1.275c-.01-.003-.262-.083-.614.15a.915.915 0 01-.614.241M3.478 10.835a1 1 0 01-.575-.186l-.01-.008c-.016-.014-.426-.366-.87-.044-.616.447-1.053.132-1.288-.037l-.023-.016c-.139-.1-.45-.055-.547-.031l-.07-.285c.052-.012.514-.118.787.077l.024.017c.223.16.5.36.945.037.505-.366 1.023-.125 1.232.058.045.032.44.291.822-.048l.016-.012c.486-.33.87-.194.885-.189l-.1.275c-.01-.002-.262-.082-.614.151a.915.915 0 01-.614.241" fill="#fff"/>
  <path d="M3.975 2.133a4.29 4.29 0 00-1.088-.844 2.982 2.982 0 00-.621-.245 1.848 1.848 0 00-.455-.06c-.089 0-.153-.018-.184-.053-.031-.034-.028-.083-.028-.083L1.6.503c0-.18.191-.206.236-.21H3.02c.048.004.237.031.237.21v.343s.005.05-.027.085c-.031.035-.096.053-.185.053-.148 0-.297.02-.446.057.185.068.352.162.468.235.17-.004.299-.055.385-.153a.416.416 0 00.098-.3v-.32C3.55.128 3.212.01 3.034 0H1.823c-.178.01-.516.128-.516.503v.32a.416.416 0 00.098.3c.09.102.227.154.406.154l.044.001c.196.003.4.06.572.125h.001c.496.188.99.56 1.331.93.869.936.827 2.219.788 3.459-.009.254-.017.517-.017.77-.001 1.544-.006 3.058-.01 4.335l-.005.979c-.002.624-.133 1.478-.739 1.998-.132.113-.25.177-.362.197-.12.02-.243-.02-.298-.099a.597.597 0 01-.072-.212 1.832 1.832 0 00-.027-.12.58.58 0 00-.576-.426h-.025a.579.579 0 00-.576.426c-.01.04-.02.08-.028.12a.59.59 0 01-.07.212c-.056.078-.179.119-.3.099-.11-.02-.23-.084-.361-.197-.607-.52-.737-1.374-.74-1.998l-.003-.979C.333 9.62.328 8.106.327 6.563c0-.254-.009-.517-.017-.771-.04-1.24-.08-2.523.787-3.46.306-.33.731-.66 1.172-.862a2.804 2.804 0 00-.43-.107c-.375.22-.712.506-.957.77-.95 1.025-.906 2.37-.865 3.668.008.252.017.513.017.762a1497.021 1497.021 0 00.014 5.314c.004.983.295 1.75.842 2.22.174.148.338.234.503.262.235.04.466-.045.588-.218a.827.827 0 00.118-.32 1.92 1.92 0 01.024-.103c.036-.13.148-.21.293-.21h.025c.144 0 .257.08.293.21.009.032.016.066.024.102.021.103.046.218.118.321.102.144.28.228.473.228a.661.661 0 00.114-.01c.166-.028.33-.114.504-.263.546-.468.838-1.236.842-2.219l.004-.979c.004-1.278.009-2.792.01-4.335 0-.25.009-.51.017-.762.041-1.299.084-2.643-.865-3.668" fill="#fff"/>
</svg>
