<?xml version="1.0" encoding="UTF-8" standalone="no"?>
<!-- Generator: Adobe Illustrator 17.0.0, SVG Export Plug-In . SVG Version: 6.00 Build 0)  -->

<svg
   xmlns:dc="http://purl.org/dc/elements/1.1/"
   xmlns:cc="http://creativecommons.org/ns#"
   xmlns:rdf="http://www.w3.org/1999/02/22-rdf-syntax-ns#"
   xmlns:svg="http://www.w3.org/2000/svg"
   xmlns="http://www.w3.org/2000/svg"
   xmlns:sodipodi="http://sodipodi.sourceforge.net/DTD/sodipodi-0.dtd"
   xmlns:inkscape="http://www.inkscape.org/namespaces/inkscape"
   version="1.1"
   id="Layer_1"
   x="0px"
   y="0px"
   width="32.15247"
   height="28.268999"
   viewBox="0 0 32.152468 28.268998"
   enable-background="new 0 0 411.765 223.529"
   xml:space="preserve"
   sodipodi:docname="electric.svg"
   inkscape:version="0.92.2 5c3e80d, 2017-08-06"><metadata
     id="metadata156"><rdf:RDF><cc:Work
         rdf:about=""><dc:format>image/svg+xml</dc:format><dc:type
           rdf:resource="http://purl.org/dc/dcmitype/StillImage" /><dc:title></dc:title></cc:Work></rdf:RDF></metadata><defs
     id="defs154" /><sodipodi:namedview
     pagecolor="#ffffff"
     bordercolor="#666666"
     borderopacity="1"
     objecttolerance="10"
     gridtolerance="10"
     guidetolerance="10"
     inkscape:pageopacity="0"
     inkscape:pageshadow="2"
     inkscape:window-width="1440"
     inkscape:window-height="855"
     id="namedview152"
     showgrid="false"
     fit-margin-top="0"
     fit-margin-left="0"
     fit-margin-right="0"
     fit-margin-bottom="0"
     inkscape:pagecheckerboard="true"
     inkscape:zoom="3.1474262"
     inkscape:cx="-9.1589827"
     inkscape:cy="36.683642"
     inkscape:window-x="0"
     inkscape:window-y="1"
     inkscape:window-maximized="1"
     inkscape:current-layer="Layer_1" /><linearGradient
     id="SVGID_1_"
     gradientUnits="userSpaceOnUse"
     x1="5.7618722e-06"
     y1="112.2364"
     x2="413.51208"
     y2="112.2364"
     gradientTransform="translate(-152.35753,-102.745)"><stop
       offset="0"
       style="stop-color:#2E74B8"
       id="stop2" /><stop
       offset="0.3538"
       style="stop-color:#2E74B8"
       id="stop4" /><stop
       offset="0.7694"
       style="stop-color:#2D73B7"
       id="stop6" /><stop
       offset="0.9097"
       style="stop-color:#2B70B6"
       id="stop8" /><stop
       offset="1"
       style="stop-color:#2B70B6"
       id="stop10" /></linearGradient><g
     id="g101"
     transform="translate(-152.35753,-102.745)"><path
       d="m 170.253,114.745 h -13.378 c -0.073,0 -4.504,-0.187 -4.504,-5.771 -0.008,-0.104 -0.219,-3.47 1.366,-5.17 0.615,-0.659 1.408,-1.059 2.357,-1.059 h 14.012 c 0.133,0 0.232,0.049 0.628,0.049 1.266,0 1.776,0.74 1.776,1.758 v 8.398 c 0,0.772 -0.384,1.795 -2.257,1.795 z m -14.16,-11 c -0.669,0 -1.201,0.352 -1.624,0.805 -1.289,1.38 -1.102,4.293 -1.1,4.323 0.001,4.652 3.391,4.871 3.535,4.871 h 13.348 c 1.521,0 1.746,-0.972 1.755,-1.02 l -0.009,-8.24 c 0,-0.188 0,-0.593 -1.021,-0.593 -0.384,0 -0.712,-0.045 -0.715,-0.044 l -0.107,-0.103 h -14.062 z"
       id="path81"
       inkscape:connector-curvature="0"
       style="fill:#ffffff" /><path
       d="m 163.74,125.745 h -8.231 v -12 h 1 v 11 h 5.983 c -0.261,-1 -1.012,-2.493 -1.619,-3.204 l -0.364,-0.008 v -7.788 h 1 v 7.428 c 1,1.328 1.834,3.979 1.859,4.101 z"
       id="path83"
       inkscape:connector-curvature="0"
       style="fill:#ffffff" /><path
       d="m 161.539,119.03 c -0.233,0 -0.391,-0.026 -0.408,-0.029 l 0.169,-0.985 c 0.009,0.003 0.501,0.116 0.982,-0.294 0.313,-0.267 0.228,-0.722 0.228,-1.354 v -2.622 h 1 v 2.622 c 0,0.943 -0.036,1.658 -0.589,2.123 -0.542,0.455 -0.962,0.539 -1.382,0.539 z"
       id="path85"
       inkscape:connector-curvature="0"
       style="fill:#ffffff" /><rect
       x="173.99899"
       y="110.008"
       width="1"
       height="2"
       id="rect87"
       style="fill:#ffffff" /><rect
       x="175.50999"
       y="104.745"
       width="1"
       height="3"
       id="rect89"
       style="fill:#ffffff" /><path
       d="m 164.849,131.014 v 0 c -0.128,0 -0.207,-0.008 -0.207,-0.008 l -8.606,-0.081 c -0.665,0 -1.434,-0.196 -1.799,-0.585 -0.513,-0.545 -0.727,-1.242 -0.727,-1.32 v -2.105 c 0,-0.508 0.317,-0.969 0.63,-1.316 0.465,-0.518 1.304,-0.595 1.689,-0.595 0.117,0 0.251,0.007 0.251,0.007 l 8.957,-0.006 c 0.633,0 0.9,0.182 1.247,0.54 0.463,0.479 0.226,1.08 0.226,1.147 v 2.483 c 0,0.487 0.103,0.92 -0.207,1.238 -0.508,0.523 -1.038,0.601 -1.454,0.601 z m -8.898,-5.269 c -0.138,0 -0.604,0.148 -0.824,0.393 -0.117,0.13 -0.16,0.389 -0.131,0.659 l 0.003,2.221 c -0.001,0.028 -0.01,0.392 0.217,0.627 0.169,0.175 0.446,0.272 0.825,0.272 l 8.808,0.093 c 0.163,0 0.469,-0.019 0.738,-0.296 0.12,-0.123 -0.077,-0.294 -0.077,-0.525 v -2.514 c 0,-0.208 0.42,-0.93 -0.42,-0.93 h -0.148 -8.848 z"
       id="path91"
       inkscape:connector-curvature="0"
       style="fill:#ffffff" /><rect
       x="157.50999"
       y="105.745"
       width="14"
       height="1"
       id="rect93"
       style="fill:#ffffff" /><rect
       x="157.50999"
       y="110.745"
       width="14"
       height="1"
       id="rect95"
       style="fill:#ffffff" /><path
       d="m 173.32,112.912 c -0.409,0 -0.811,-0.021 -1.199,-0.062 l 0.105,-0.994 c 3.06,0.324 6.25,-0.743 7.123,-2.382 1.08,-2.023 1.886,-2.517 2.036,-2.569 l 0.163,-0.159 h 2.961 v 1 h -2.84 c -0.151,0 -0.695,0.675 -1.438,2.067 -1.075,2.017 -4.147,3.099 -6.911,3.099 z"
       id="path97"
       inkscape:connector-curvature="0"
       style="fill:#ffffff" /><path
       d="m 181.559,109.745 c -0.365,0 -1.019,-0.257 -1.982,-2.064 -0.903,-1.694 -4.157,-2.793 -7.106,-2.483 l -0.105,-0.961 c 3.371,-0.359 7,0.905 8.095,2.957 0.684,1.283 1.095,1.551 1.198,1.551 h 2.851 v 1 h -2.929 c -0.007,0 -0.014,0 -0.022,0 z"
       id="path99"
       inkscape:connector-curvature="0"
       style="fill:#ffffff" /></g></svg>