<?xml version="1.0" encoding="UTF-8" standalone="no"?>
<!-- Generator: Adobe Illustrator 17.0.0, SVG Export Plug-In . SVG Version: 6.00 Build 0)  -->

<svg
   xmlns:dc="http://purl.org/dc/elements/1.1/"
   xmlns:cc="http://creativecommons.org/ns#"
   xmlns:rdf="http://www.w3.org/1999/02/22-rdf-syntax-ns#"
   xmlns:svg="http://www.w3.org/2000/svg"
   xmlns="http://www.w3.org/2000/svg"
   xmlns:sodipodi="http://sodipodi.sourceforge.net/DTD/sodipodi-0.dtd"
   xmlns:inkscape="http://www.inkscape.org/namespaces/inkscape"
   version="1.1"
   id="Layer_1"
   x="0px"
   y="0px"
   width="18.402325"
   height="30.775"
   viewBox="0 0 18.402324 30.774998"
   enable-background="new 0 0 411.765 223.529"
   xml:space="preserve"
   sodipodi:docname="healthcare.svg"
   inkscape:version="0.92.2 5c3e80d, 2017-08-06"><metadata
     id="metadata156"><rdf:RDF><cc:Work
         rdf:about=""><dc:format>image/svg+xml</dc:format><dc:type
           rdf:resource="http://purl.org/dc/dcmitype/StillImage" /><dc:title></dc:title></cc:Work></rdf:RDF></metadata><defs
     id="defs154" /><sodipodi:namedview
     pagecolor="#ffffff"
     bordercolor="#666666"
     borderopacity="1"
     objecttolerance="10"
     gridtolerance="10"
     guidetolerance="10"
     inkscape:pageopacity="0"
     inkscape:pageshadow="2"
     inkscape:window-width="1440"
     inkscape:window-height="855"
     id="namedview152"
     showgrid="false"
     fit-margin-top="0"
     fit-margin-left="0"
     fit-margin-right="0"
     fit-margin-bottom="0"
     inkscape:pagecheckerboard="true"
     inkscape:zoom="3.1474262"
     inkscape:cx="-64.101453"
     inkscape:cy="35.992643"
     inkscape:window-x="0"
     inkscape:window-y="1"
     inkscape:window-maximized="1"
     inkscape:current-layer="Layer_1" /><linearGradient
     id="SVGID_1_"
     gradientUnits="userSpaceOnUse"
     x1="5.7618722e-06"
     y1="112.2364"
     x2="413.51208"
     y2="112.2364"
     gradientTransform="translate(-152.35753,-102.745)"><stop
       offset="0"
       style="stop-color:#2E74B8"
       id="stop2" /><stop
       offset="0.3538"
       style="stop-color:#2E74B8"
       id="stop4" /><stop
       offset="0.7694"
       style="stop-color:#2D73B7"
       id="stop6" /><stop
       offset="0.9097"
       style="stop-color:#2B70B6"
       id="stop8" /><stop
       offset="1"
       style="stop-color:#2B70B6"
       id="stop10" /></linearGradient><g
     id="g79"
     transform="translate(-207.3,-99.548)"><g
       id="g55"><path
         d="m 225.304,102.673 c -0.067,0 -0.135,-0.017 -0.197,-0.052 -0.016,-0.009 -1.574,-0.898 -2.935,-1.556 -1.255,-0.608 -3.107,-0.715 -3.244,-0.723 h -7.163 c -0.219,0 -0.397,-0.178 -0.397,-0.397 0,-0.219 0.178,-0.397 0.397,-0.397 h 7.191 c 0.086,0.004 2.116,0.101 3.563,0.801 1.386,0.671 2.967,1.573 2.983,1.582 0.19,0.109 0.257,0.352 0.148,0.542 -0.074,0.128 -0.208,0.2 -0.346,0.2 z"
         id="path53"
         inkscape:connector-curvature="0"
         style="fill:#ffffff" /></g><g
       id="g59"><path
         d="m 219.415,107.987 h -0.795 v -1.157 c 0,-0.382 -0.456,-0.644 -1.007,-0.922 l -0.094,-0.048 c -0.679,-0.346 -1.378,-0.678 -2.077,-0.987 -0.845,-0.373 -1.273,-0.91 -1.273,-1.596 v -3.198 h 0.795 v 3.198 c 0,0.221 0.083,0.552 0.799,0.869 0.713,0.315 1.425,0.653 2.117,1.006 l 0.091,0.046 c 0.575,0.29 1.444,0.729 1.444,1.631 z"
         id="path57"
         inkscape:connector-curvature="0"
         style="fill:#ffffff" /></g><g
       id="g63"><path
         d="m 213.133,107.987 h -0.795 v -1.157 c 0,-0.903 0.869,-1.341 1.444,-1.631 l 0.091,-0.046 c 0.692,-0.353 1.404,-0.691 2.117,-1.006 0.717,-0.316 0.799,-0.647 0.799,-0.869 v -3.198 h 0.795 v 3.198 c 0,0.686 -0.428,1.223 -1.273,1.596 -0.699,0.309 -1.398,0.641 -2.077,0.987 l -0.094,0.048 c -0.551,0.278 -1.007,0.539 -1.007,0.922 z"
         id="path61"
         inkscape:connector-curvature="0"
         style="fill:#ffffff" /></g><g
       id="g73"><g
         id="g67"><path
           d="m 222.894,130.323 h -14.197 c -0.77,0 -1.397,-0.627 -1.397,-1.397 v -16.071 c 0,-2.906 2.364,-5.27 5.27,-5.27 h 6.451 c 2.906,0 5.27,2.364 5.27,5.27 v 16.071 c 0,0.77 -0.627,1.397 -1.397,1.397 z m -10.325,-21.944 c -2.468,0 -4.476,2.008 -4.476,4.476 v 16.071 c 0,0.332 0.27,0.603 0.602,0.603 h 14.197 c 0.332,0 0.602,-0.27 0.602,-0.603 v -16.071 c 0,-2.468 -2.008,-4.476 -4.476,-4.476 z"
           id="path65"
           inkscape:connector-curvature="0"
           style="fill:#ffffff" /></g><g
         id="g71"><path
           d="m 224.057,125.66 h -8.248 c -1.027,0 -1.862,-0.835 -1.862,-1.862 v -8.413 c 0,-1.027 0.835,-1.862 1.862,-1.862 h 8.248 v 0.795 h -8.248 c -0.589,0 -1.068,0.479 -1.068,1.068 v 8.413 c 0,0.589 0.479,1.068 1.068,1.068 h 8.248 z"
           id="path69"
           inkscape:connector-curvature="0"
           style="fill:#ffffff" /></g></g><polygon
       points="217.287,104.403 216.051,103.833 215.763,104.147 216.999,104.717 "
       id="polygon75"
       style="fill:#ffffff" /><path
       d="m 214.943,104.602 c 0,0 0.061,0.083 1.06,0.524 l -0.495,0.213 c -0.999,-0.441 -1.06,-0.524 -1.06,-0.524 z"
       id="path77"
       inkscape:connector-curvature="0"
       style="fill:#ffffff" /></g></svg>