<?xml version="1.0" encoding="UTF-8" standalone="no"?>
<!-- Generator: Adobe Illustrator 17.0.0, SVG Export Plug-In . SVG Version: 6.00 Build 0)  -->

<svg
   xmlns:dc="http://purl.org/dc/elements/1.1/"
   xmlns:cc="http://creativecommons.org/ns#"
   xmlns:rdf="http://www.w3.org/1999/02/22-rdf-syntax-ns#"
   xmlns:svg="http://www.w3.org/2000/svg"
   xmlns="http://www.w3.org/2000/svg"
   xmlns:sodipodi="http://sodipodi.sourceforge.net/DTD/sodipodi-0.dtd"
   xmlns:inkscape="http://www.inkscape.org/namespaces/inkscape"
   version="1.1"
   id="Layer_1"
   x="0px"
   y="0px"
   width="37.535"
   height="17.225"
   viewBox="0 0 37.535 17.225"
   enable-background="new 0 0 320 2287"
   xml:space="preserve"
   sodipodi:docname="adp-white.svg"
   inkscape:version="0.92.2 5c3e80d, 2017-08-06"><metadata
     id="metadata1239"><rdf:RDF><cc:Work
         rdf:about=""><dc:format>image/svg+xml</dc:format><dc:type
           rdf:resource="http://purl.org/dc/dcmitype/StillImage" /><dc:title></dc:title></cc:Work></rdf:RDF></metadata><defs
     id="defs1237" /><sodipodi:namedview
     pagecolor="#ffffff"
     bordercolor="#666666"
     borderopacity="1"
     objecttolerance="10"
     gridtolerance="10"
     guidetolerance="10"
     inkscape:pageopacity="0"
     inkscape:pageshadow="2"
     inkscape:window-width="640"
     inkscape:window-height="480"
     id="namedview1235"
     showgrid="false"
     fit-margin-top="0"
     fit-margin-left="0"
     fit-margin-right="0"
     fit-margin-bottom="0"
     inkscape:pagecheckerboard="true"
     inkscape:zoom="4.6699348"
     inkscape:cx="7.6387484"
     inkscape:cy="19.49518"
     inkscape:window-x="0"
     inkscape:window-y="0"
     inkscape:window-maximized="0"
     inkscape:current-layer="Layer_1" /><linearGradient
     id="SVGID_39_"
     gradientUnits="userSpaceOnUse"
     x1="-0.039900001"
     y1="715.60889"
     x2="319.4722"
     y2="715.60889"
     gradientTransform="translate(-10.029679,-2249.4557)"><stop
       offset="0"
       style="stop-color:#2E74B8"
       id="stop232" /><stop
       offset="0.3538"
       style="stop-color:#2E74B8"
       id="stop234" /><stop
       offset="0.7694"
       style="stop-color:#2D73B7"
       id="stop236" /><stop
       offset="0.9097"
       style="stop-color:#2B70B6"
       id="stop238" /><stop
       offset="1"
       style="stop-color:#2B70B6"
       id="stop240" /></linearGradient><g
     id="g1190"
     transform="translate(-8.959,-2253.096)"><g
       id="g1176"><path
         d="m 17.09,2263.897 -0.008,0.01 c -0.004,0 -0.01,0.01 -0.015,0.015 l -0.147,0.13 c -0.044,0.04 -0.089,0.077 -0.136,0.114 -0.005,0 -0.011,0.01 -0.016,0.012 -0.025,0.019 -0.051,0.037 -0.076,0.056 -0.037,0.026 -0.075,0.053 -0.118,0.081 -0.032,0.021 -0.064,0.043 -0.097,0.063 -0.052,0.033 -0.104,0.063 -0.158,0.091 -10e-4,0 -0.002,0 -0.004,0 -0.023,0.013 -0.049,0.026 -0.074,0.039 -0.081,0.042 -0.163,0.08 -0.248,0.113 -0.111,0.045 -0.226,0.084 -0.343,0.114 -0.001,0 -0.004,0 -0.005,0 -0.436,0.175 -0.903,0.29 -1.391,0.326 -1.429,0.039 -2.493,-0.323 -3.275,-0.83 -0.008,-0.01 -0.015,-0.01 -0.022,-0.015 -0.049,-0.032 -0.096,-0.065 -0.143,-0.098 -1.05,-0.755 -1.74,-1.893 -1.804,-3.177 -10e-4,0.01 -0.002,0.014 -0.003,0.021 -0.004,0.034 -0.008,0.07 -0.012,0.106 -10e-4,0.014 -0.003,0.027 -0.004,0.042 -0.005,0.052 -0.01,0.104 -0.014,0.156 -0.005,0.063 -0.008,0.125 -0.011,0.188 -0.002,0.048 -0.002,0.097 -0.003,0.145 -10e-4,0 -0.002,-0.01 -0.002,-0.01 -10e-4,0.038 -0.002,0.076 -0.002,0.114 0,0.792 0.156,1.562 0.462,2.286 0.445,1.05 1.18,1.943 2.126,2.583 0.972,0.656 2.108,1.003 3.288,1.003 0.738,0 1.474,-0.145 2.161,-0.417 0.032,-0.012 0.064,-0.023 0.096,-0.036 v -3.229 H 17.09 Z"
         id="path1172"
         inkscape:connector-curvature="0"
         style="fill:#ffffff" /><path
         d="m 20.661,2260.972 c -0.025,-0.195 -0.059,-0.387 -0.102,-0.576 -0.044,-0.191 -0.097,-0.379 -0.159,-0.562 -0.047,-0.139 -0.099,-0.276 -0.156,-0.412 -0.056,-0.132 -0.115,-0.261 -0.18,-0.387 -0.291,-0.567 -0.67,-1.081 -1.124,-1.525 -0.251,-0.247 -0.527,-0.471 -0.822,-0.671 -0.972,-0.657 -2.108,-1.005 -3.287,-1.005 -0.792,0 -1.56,0.156 -2.285,0.463 -0.196,0.083 -0.388,0.177 -0.572,0.28 -0.309,0.173 -0.601,0.371 -0.873,0.594 -1.125,0.927 -1.991,2.283 -1.758,3.792 0.257,1.664 1.652,2.74 3.263,2.949 -0.137,-0.139 -0.264,-0.288 -0.375,-0.452 -0.044,-0.064 -0.085,-0.13 -0.123,-0.199 -0.174,-0.303 -0.294,-0.631 -0.358,-0.973 -0.036,-0.189 -0.054,-0.384 -0.054,-0.58 0,-0.053 10e-4,-0.106 0.004,-0.158 0.018,-0.368 0.099,-0.724 0.242,-1.063 0.059,-0.141 0.129,-0.276 0.207,-0.405 0.235,-0.387 0.552,-0.719 0.932,-0.976 0.517,-0.35 1.124,-0.535 1.752,-0.535 0.424,0 0.834,0.083 1.22,0.246 0.386,0.163 0.733,0.401 1.022,0.697 0.027,0.026 0.053,0.053 0.078,0.082 0.103,0.111 0.196,0.231 0.281,0.358 0.064,0.096 0.123,0.196 0.177,0.299 0.054,0.102 0.1,0.207 0.143,0.314 0.041,0.107 0.077,0.218 0.107,0.331 0.038,0.149 0.066,0.302 0.084,0.457 0.004,0.039 0.008,0.077 0.011,0.117 0.005,0.078 0.01,0.156 0.01,0.236 v 5.873 h 2.74 v -5.873 c 0,-0.249 -0.015,-0.495 -0.045,-0.736 z"
         id="path1174"
         inkscape:connector-curvature="0"
         style="fill:#ffffff" /></g><g
       id="g1182"><path
         d="m 38.362,2263.897 0.008,0.01 c 0.004,0 0.01,0.01 0.015,0.015 l 0.147,0.13 c 0.044,0.04 0.089,0.077 0.136,0.114 0.005,0 0.011,0.01 0.016,0.012 0.025,0.019 0.051,0.037 0.076,0.056 0.037,0.026 0.075,0.053 0.118,0.081 0.032,0.021 0.064,0.043 0.097,0.063 0.052,0.033 0.104,0.063 0.158,0.091 10e-4,0 0.002,0 0.004,0 0.023,0.013 0.049,0.026 0.074,0.039 0.081,0.042 0.163,0.08 0.248,0.113 0.111,0.045 0.226,0.084 0.343,0.114 10e-4,0 0.004,0 0.005,0 0.436,0.175 0.903,0.29 1.391,0.326 1.429,0.039 2.493,-0.323 3.275,-0.83 0.008,-0.01 0.015,-0.01 0.022,-0.015 0.049,-0.032 0.096,-0.065 0.143,-0.098 1.05,-0.755 1.74,-1.893 1.804,-3.177 10e-4,0.01 0.002,0.014 0.003,0.021 0.004,0.034 0.008,0.07 0.012,0.106 10e-4,0.014 0.003,0.027 0.004,0.042 0.005,0.052 0.01,0.104 0.014,0.156 0.005,0.063 0.008,0.125 0.011,0.188 0.002,0.048 0.002,0.097 0.003,0.145 0.001,0 0.002,-0.01 0.002,-0.01 10e-4,0.037 0.003,0.075 0.003,0.113 0,0.792 -0.156,1.562 -0.462,2.286 -0.445,1.05 -1.18,1.943 -2.126,2.583 -0.972,0.656 -2.108,1.003 -3.288,1.003 -0.738,0 -1.474,-0.145 -2.161,-0.417 -0.032,-0.012 -0.064,-0.023 -0.096,-0.036 v -3.229 h 0.002 v 0 z"
         id="path1178"
         inkscape:connector-curvature="0"
         style="fill:#ffffff" /><path
         d="m 34.792,2260.972 c 0.025,-0.195 0.059,-0.387 0.102,-0.576 0.044,-0.191 0.097,-0.379 0.159,-0.562 0.047,-0.139 0.099,-0.276 0.156,-0.412 0.056,-0.132 0.115,-0.261 0.18,-0.387 0.291,-0.567 0.67,-1.081 1.124,-1.525 0.251,-0.247 0.527,-0.471 0.822,-0.671 0.972,-0.657 2.108,-1.005 3.287,-1.005 0.792,0 1.56,0.156 2.285,0.463 0.196,0.083 0.388,0.177 0.572,0.28 0.309,0.173 0.601,0.371 0.873,0.594 1.125,0.927 1.991,2.283 1.758,3.792 -0.257,1.664 -1.652,2.74 -3.263,2.949 0.137,-0.139 0.264,-0.288 0.375,-0.452 0.044,-0.064 0.085,-0.13 0.123,-0.199 0.174,-0.303 0.294,-0.631 0.358,-0.973 0.036,-0.189 0.054,-0.384 0.054,-0.58 0,-0.053 -10e-4,-0.106 -0.004,-0.158 -0.018,-0.368 -0.099,-0.724 -0.242,-1.063 -0.059,-0.141 -0.129,-0.276 -0.207,-0.405 -0.235,-0.387 -0.552,-0.719 -0.932,-0.976 -0.517,-0.35 -1.124,-0.535 -1.752,-0.535 -0.424,0 -0.834,0.083 -1.22,0.246 -0.386,0.163 -0.733,0.401 -1.022,0.697 -0.027,0.026 -0.053,0.053 -0.078,0.082 -0.103,0.111 -0.196,0.231 -0.281,0.358 -0.064,0.096 -0.123,0.196 -0.177,0.299 -0.054,0.102 -0.1,0.207 -0.143,0.314 -0.041,0.107 -0.077,0.218 -0.107,0.331 -0.038,0.149 -0.066,0.302 -0.084,0.457 -0.004,0.039 -0.008,0.077 -0.011,0.117 -0.005,0.078 -0.01,0.156 -0.01,0.236 v 8.613 h -2.74 v -8.613 c 0,-0.249 0.015,-0.495 0.045,-0.736 z"
         id="path1180"
         inkscape:connector-curvature="0"
         style="fill:#ffffff" /></g><g
       id="g1188"><path
         d="m 29.984,2259.517 -0.008,-0.01 c -0.004,0 -0.01,-0.01 -0.015,-0.015 l -0.147,-0.13 c -0.044,-0.04 -0.089,-0.077 -0.136,-0.114 -0.005,0 -0.011,-0.01 -0.016,-0.012 -0.025,-0.019 -0.051,-0.037 -0.076,-0.056 -0.037,-0.026 -0.075,-0.053 -0.118,-0.081 -0.032,-0.021 -0.064,-0.044 -0.097,-0.064 -0.052,-0.033 -0.104,-0.063 -0.158,-0.091 -0.001,0 -0.002,0 -0.004,0 -0.023,-0.013 -0.049,-0.026 -0.074,-0.039 -0.081,-0.042 -0.163,-0.08 -0.248,-0.113 -0.111,-0.045 -0.226,-0.084 -0.343,-0.114 -0.001,0 -0.004,0 -0.005,0 -0.436,-0.175 -0.903,-0.29 -1.391,-0.326 -1.429,-0.039 -2.493,0.323 -3.275,0.829 -0.008,0.01 -0.015,0.01 -0.022,0.015 -0.049,0.032 -0.096,0.065 -0.143,0.099 -1.05,0.755 -1.74,1.893 -1.804,3.177 -0.001,-0.01 -0.002,-0.014 -0.003,-0.021 -0.004,-0.034 -0.008,-0.07 -0.012,-0.105 -10e-4,-0.014 -0.003,-0.028 -0.004,-0.043 -0.005,-0.052 -0.01,-0.104 -0.014,-0.156 -0.005,-0.063 -0.008,-0.125 -0.011,-0.188 -0.002,-0.048 -0.002,-0.096 -0.003,-0.145 -10e-4,0 -0.002,0.01 -0.002,0.01 -0.001,-0.038 -0.002,-0.076 -0.002,-0.114 0,-0.792 0.156,-1.562 0.462,-2.286 0.445,-1.05 1.18,-1.943 2.126,-2.583 0.972,-0.656 2.108,-1.003 3.288,-1.003 0.738,0 1.474,0.145 2.161,0.417 0.032,0.012 0.064,0.023 0.096,0.036 v 3.229 h -0.002 v 0 z"
         id="path1184"
         inkscape:connector-curvature="0"
         style="fill:#ffffff" /><path
         d="m 33.555,2262.443 c -0.025,0.195 -0.059,0.387 -0.102,0.576 -0.044,0.191 -0.097,0.379 -0.159,0.563 -0.047,0.139 -0.099,0.276 -0.156,0.412 -0.056,0.132 -0.115,0.261 -0.18,0.387 -0.291,0.567 -0.67,1.082 -1.124,1.525 -0.251,0.247 -0.527,0.471 -0.822,0.671 -0.972,0.657 -2.108,1.004 -3.287,1.004 -0.792,0 -1.56,-0.156 -2.285,-0.462 -0.196,-0.084 -0.388,-0.177 -0.572,-0.28 -0.309,-0.173 -0.601,-0.37 -0.873,-0.594 -1.125,-0.926 -1.991,-2.283 -1.758,-3.792 0.257,-1.664 1.652,-2.74 3.263,-2.949 -0.137,0.139 -0.264,0.288 -0.375,0.452 -0.044,0.064 -0.085,0.13 -0.123,0.199 -0.174,0.303 -0.294,0.631 -0.358,0.973 -0.036,0.189 -0.054,0.384 -0.054,0.581 0,0.053 0.001,0.106 0.004,0.158 0.018,0.368 0.099,0.725 0.242,1.063 0.059,0.141 0.129,0.276 0.207,0.405 0.235,0.387 0.552,0.719 0.932,0.976 0.517,0.35 1.124,0.535 1.752,0.535 0.424,0 0.834,-0.082 1.22,-0.246 0.386,-0.163 0.733,-0.401 1.022,-0.697 0.027,-0.026 0.053,-0.054 0.078,-0.083 0.103,-0.111 0.196,-0.23 0.281,-0.358 0.064,-0.096 0.123,-0.196 0.177,-0.299 0.054,-0.102 0.1,-0.207 0.143,-0.314 0.041,-0.107 0.077,-0.218 0.107,-0.331 0.038,-0.15 0.066,-0.302 0.084,-0.457 0.004,-0.038 0.008,-0.077 0.011,-0.117 0.005,-0.078 0.01,-0.156 0.01,-0.236 v -8.612 h 2.74 v 8.612 c 0,0.248 -0.015,0.493 -0.045,0.735 z"
         id="path1186"
         inkscape:connector-curvature="0"
         style="fill:#ffffff" /></g></g></svg>