<?xml version="1.0" encoding="UTF-8" standalone="no"?>
<!-- Generator: Adobe Illustrator 17.0.0, SVG Export Plug-In . SVG Version: 6.00 Build 0)  -->

<svg
   xmlns:dc="http://purl.org/dc/elements/1.1/"
   xmlns:cc="http://creativecommons.org/ns#"
   xmlns:rdf="http://www.w3.org/1999/02/22-rdf-syntax-ns#"
   xmlns:svg="http://www.w3.org/2000/svg"
   xmlns="http://www.w3.org/2000/svg"
   xmlns:sodipodi="http://sodipodi.sourceforge.net/DTD/sodipodi-0.dtd"
   xmlns:inkscape="http://www.inkscape.org/namespaces/inkscape"
   version="1.1"
   id="Layer_1"
   x="0px"
   y="0px"
   width="25.658352"
   height="38.143002"
   viewBox="0 0 25.658351 38.143"
   enable-background="new 0 0 411.765 223.529"
   xml:space="preserve"
   sodipodi:docname="lab.svg"
   inkscape:version="0.92.2 5c3e80d, 2017-08-06"><metadata
     id="metadata156"><rdf:RDF><cc:Work
         rdf:about=""><dc:format>image/svg+xml</dc:format><dc:type
           rdf:resource="http://purl.org/dc/dcmitype/StillImage" /><dc:title></dc:title></cc:Work></rdf:RDF></metadata><defs
     id="defs154" /><sodipodi:namedview
     pagecolor="#ffffff"
     bordercolor="#666666"
     borderopacity="1"
     objecttolerance="10"
     gridtolerance="10"
     guidetolerance="10"
     inkscape:pageopacity="0"
     inkscape:pageshadow="2"
     inkscape:window-width="640"
     inkscape:window-height="480"
     id="namedview152"
     showgrid="false"
     inkscape:pagecheckerboard="true"
     fit-margin-top="0"
     fit-margin-left="0"
     fit-margin-right="0"
     fit-margin-bottom="0"
     inkscape:zoom="3.1474262"
     inkscape:cx="1.2492529"
     inkscape:cy="7.8500948"
     inkscape:window-x="0"
     inkscape:window-y="0"
     inkscape:window-maximized="0"
     inkscape:current-layer="Layer_1" /><linearGradient
     id="SVGID_1_"
     gradientUnits="userSpaceOnUse"
     x1="5.7618722e-06"
     y1="112.2364"
     x2="413.51208"
     y2="112.2364"
     gradientTransform="translate(-256.04987,-91.86)"><stop
       offset="0"
       style="stop-color:#2E74B8"
       id="stop2" /><stop
       offset="0.3538"
       style="stop-color:#2E74B8"
       id="stop4" /><stop
       offset="0.7694"
       style="stop-color:#2D73B7"
       id="stop6" /><stop
       offset="0.9097"
       style="stop-color:#2B70B6"
       id="stop8" /><stop
       offset="1"
       style="stop-color:#2B70B6"
       id="stop10" /></linearGradient><g
     id="g121"
     transform="translate(-256.04987,-91.86)"><path
       d="m 279.219,123.667 c -1.228,-1.593 -3.471,-3.064 -5.761,-1.962 -0.317,0.152 -0.632,0.348 -0.959,0.55 -1.531,0.946 -3.435,2.121 -6.721,0.164 -4.242,-2.53 -6.625,0.341 -6.649,0.37 l -0.68,-0.547 c 0.027,-0.036 2.886,-3.487 7.777,-0.573 2.83,1.688 4.346,0.749 5.815,-0.157 0.354,-0.219 0.695,-0.429 1.038,-0.594 2.759,-1.329 5.405,0.363 6.832,2.215 z"
       id="path103"
       inkscape:connector-curvature="0"
       style="fill:#ffffff" /><g
       id="g119"><path
         d="m 273.453,102.745 h -10.376 c -0.78,0 -1.415,-0.72 -1.415,-1.5 0,-0.78 0.635,-1.5 1.415,-1.5 h 10.376 c 0.78,0 1.415,0.72 1.415,1.5 0,0.78 -0.635,1.5 -1.415,1.5 z m -10.376,-2 c -0.26,0 -0.472,0.24 -0.472,0.5 0,0.26 0.212,0.5 0.472,0.5 h 10.376 c 0.26,0 0.472,-0.24 0.472,-0.5 0,-0.26 -0.212,-0.5 -0.472,-0.5 z"
         id="path105"
         inkscape:connector-curvature="0"
         style="fill:#ffffff" /><path
         d="m 259.068,130.003 c -1.31,0 -2.213,-0.36 -2.682,-1.069 -0.671,-1.013 -0.134,-2.304 -0.111,-2.358 l 6.14,-12.813 c 1.818,-3.308 6.335,-4.6 6.538,-4.654 1.89,-0.521 1.556,-2.025 1.556,-2.04 v -4.324 h 1 v 4.305 c 0,0.762 -0.195,2.394 -2.283,2.97 -0.052,0.014 -4.495,1.138 -6.104,4.064 l -6.03,12.66 h 0.021 c 10e-4,0 -0.338,0.821 0.051,1.405 0.354,0.531 1.235,0.595 1.903,0.595 h 20.514 c -0.012,0 0.742,0.035 1.046,-0.509 0.22,-0.393 0.173,-0.872 -0.138,-1.579 l -5.405,-12.336 c -1.081,-1.488 -2.589,-2.134 -2.605,-2.14 l -3.704,-1.681 1.494,-0.506 2.582,1.337 c 0.074,0.032 2.252,0.947 3.03,2.52 l 0.048,0.086 5.424,12.421 c 0.439,0.996 0.472,1.84 0.094,2.507 -0.55,0.97 -1.753,1.131 -1.804,1.137 z"
         id="path107"
         inkscape:connector-curvature="0"
         style="fill:#ffffff" /><path
         d="m 267.016,109.605 c -1.868,-0.299 -2.506,-1.612 -2.506,-2.24 v -4.619 h 1 v 4.619 c 0,0.098 -0.131,1.297 2.797,1.808 z"
         id="path109"
         inkscape:connector-curvature="0"
         style="fill:#ffffff" /><path
         d="m 268.226,119.94 c -1.112,0 -2.272,-0.318 -3.563,-1.088 -2.186,-1.304 -3.874,0.644 -3.944,0.727 l -0.721,-0.605 c 0.773,-0.923 2.842,-2.306 5.148,-0.93 2.467,1.471 4.34,1.064 6.56,-0.074 2.149,-1.099 5.394,-0.421 6.555,1.373 l -0.79,0.511 c -0.893,-1.38 -3.637,-1.917 -5.336,-1.046 -1.326,0.679 -2.583,1.132 -3.909,1.132 z"
         id="path111"
         inkscape:connector-curvature="0"
         style="fill:#ffffff" /><path
         d="m 267.4,98.166 c -0.606,0 -1.099,-0.493 -1.099,-1.099 0,-0.607 0.493,-1.1 1.099,-1.1 0.606,0 1.1,0.493 1.1,1.1 0,0.606 -0.494,1.099 -1.1,1.099 z m 0,-1.258 c -0.087,0 -0.158,0.071 -0.158,0.158 0,0.175 0.316,0.173 0.316,0 0,-0.087 -0.071,-0.158 -0.158,-0.158 z"
         id="path113"
         inkscape:connector-curvature="0"
         style="fill:#ffffff" /><path
         d="m 270.427,96.82 c -0.796,0 -1.443,-0.648 -1.443,-1.443 0,-0.795 0.647,-1.443 1.443,-1.443 0.796,0 1.443,0.648 1.443,1.443 -10e-4,0.795 -0.647,1.443 -1.443,1.443 z m 0,-1.651 c -0.114,0 -0.208,0.093 -0.208,0.208 0,0.229 0.416,0.229 0.416,0 0,-0.115 -0.094,-0.208 -0.208,-0.208 z"
         id="path115"
         inkscape:connector-curvature="0"
         style="fill:#ffffff" /><path
         d="m 268.265,93.784 c -0.531,0 -0.962,-0.432 -0.962,-0.962 0,-0.531 0.431,-0.962 0.962,-0.962 0.531,0 0.962,0.432 0.962,0.962 0,0.53 -0.432,0.962 -0.962,0.962 z m 0,-1.101 c -0.076,0 -0.138,0.062 -0.138,0.139 0,0.152 0.276,0.152 0.276,0 0,-0.076 -0.062,-0.139 -0.138,-0.139 z"
         id="path117"
         inkscape:connector-curvature="0"
         style="fill:#ffffff" /></g></g></svg>