<?xml version="1.0" encoding="UTF-8" standalone="no"?>
<!-- Generator: Adobe Illustrator 17.0.0, SVG Export Plug-In . SVG Version: 6.00 Build 0)  -->

<svg
   xmlns:dc="http://purl.org/dc/elements/1.1/"
   xmlns:cc="http://creativecommons.org/ns#"
   xmlns:rdf="http://www.w3.org/1999/02/22-rdf-syntax-ns#"
   xmlns:svg="http://www.w3.org/2000/svg"
   xmlns="http://www.w3.org/2000/svg"
   xmlns:sodipodi="http://sodipodi.sourceforge.net/DTD/sodipodi-0.dtd"
   xmlns:inkscape="http://www.inkscape.org/namespaces/inkscape"
   version="1.1"
   id="Layer_1"
   x="0px"
   y="0px"
   width="15.009566"
   height="33.275002"
   viewBox="0 0 15.009566 33.275"
   enable-background="new 0 0 411.765 223.529"
   xml:space="preserve"
   sodipodi:docname="battery.svg"
   inkscape:version="0.92.2 5c3e80d, 2017-08-06"><metadata
     id="metadata156"><rdf:RDF><cc:Work
         rdf:about=""><dc:format>image/svg+xml</dc:format><dc:type
           rdf:resource="http://purl.org/dc/dcmitype/StillImage" /><dc:title></dc:title></cc:Work></rdf:RDF></metadata><defs
     id="defs154" /><sodipodi:namedview
     pagecolor="#ffffff"
     bordercolor="#666666"
     borderopacity="1"
     objecttolerance="10"
     gridtolerance="10"
     guidetolerance="10"
     inkscape:pageopacity="0"
     inkscape:pageshadow="2"
     inkscape:window-width="640"
     inkscape:window-height="480"
     id="namedview152"
     showgrid="false"
     inkscape:pagecheckerboard="true"
     fit-margin-top="0"
     fit-margin-left="0"
     fit-margin-right="0"
     fit-margin-bottom="0"
     inkscape:zoom="3.1474262"
     inkscape:cx="-27.733362"
     inkscape:cy="7.8660934"
     inkscape:window-x="0"
     inkscape:window-y="0"
     inkscape:window-maximized="0"
     inkscape:current-layer="Layer_1" /><linearGradient
     id="SVGID_1_"
     gradientUnits="userSpaceOnUse"
     x1="5.7618722e-06"
     y1="112.2364"
     x2="413.51208"
     y2="112.2364"
     gradientTransform="translate(-373.99406,-96.744)"><stop
       offset="0"
       style="stop-color:#2E74B8"
       id="stop2" /><stop
       offset="0.3538"
       style="stop-color:#2E74B8"
       id="stop4" /><stop
       offset="0.7694"
       style="stop-color:#2D73B7"
       id="stop6" /><stop
       offset="0.9097"
       style="stop-color:#2B70B6"
       id="stop8" /><stop
       offset="1"
       style="stop-color:#2B70B6"
       id="stop10" /></linearGradient><g
     id="g149"
     transform="translate(-373.99406,-96.744)"><polygon
       points="384.062,104.406 382.53,109.564 381.499,109.565 381.844,108.449 380.723,109.745 385.715,109.745 379.07,116.063 380.999,111.314 382.093,111.377 381.53,112.639 383.174,110.745 378.651,110.745 "
       id="polygon139"
       style="fill:#ffffff" /><rect
       x="376.51001"
       y="118.745"
       width="9"
       height="1"
       id="rect141"
       style="fill:#ffffff" /><rect
       x="376.51001"
       y="121.745"
       width="9"
       height="1"
       id="rect143"
       style="fill:#ffffff" /><rect
       x="376.51001"
       y="124.745"
       width="9"
       height="1"
       id="rect145"
       style="fill:#ffffff" /><path
       d="m 386.293,130.019 c -0.207,0 -0.343,-0.017 -0.36,-0.02 l -8.184,0.004 c -1.463,0.051 -2.527,-0.278 -3.166,-0.979 -0.693,-0.763 -0.585,-1.672 -0.58,-1.71 l -0.004,-24.811 c 0.015,-0.669 0.241,-1.21 0.675,-1.62 0.842,-0.794 2.162,-0.759 2.218,-0.755 l 2.847,-0.11 c 3.391,-0.375 3.771,-1.184 3.771,-1.41 v -0.864 h -6 v 0.881 c 0,0.315 0.823,0.706 3.667,1.096 l -2.456,0.219 c -0.562,0.031 -0.996,-0.094 -1.59,-0.344 l -0.621,-0.223 v -2.629 h 8.489 l -0.02,1.975 c -0.052,0.182 -0.611,1.856 -4.175,2.257 l -3.92,0.119 c -0.036,-0.001 -1.24,-0.005 -1.772,0.501 -0.232,0.222 -0.603,0.533 -0.603,0.917 v 24.864 c 0,0.079 0.193,0.441 0.58,0.855 0.429,0.459 1.501,0.511 2.642,0.511 h 8.268 c 0.073,0 0.757,0.244 1.312,-0.246 0.299,-0.263 0.199,-0.529 0.199,-1.079 v -25.417 c 0,-0.187 0.251,-0.586 0.05,-0.808 -0.118,-0.129 -0.177,-0.192 -0.433,-0.192 l -5.001,-0.016 1.452,-0.547 0.765,-0.422 2.898,-0.016 c 0.687,0 1.091,0.287 1.307,0.528 0.531,0.593 0.457,1.434 0.446,1.527 l 0.004,25.361 c 0,0.846 -0.264,1.506 -0.788,1.964 -0.623,0.551 -1.45,0.639 -1.917,0.639 z"
       id="path147"
       inkscape:connector-curvature="0"
       style="fill:#ffffff" /></g></svg>